<svg height="30px" width="30px" version="1.1" id="Layer_1" xmlns="http://www.w3.org/2000/svg" xmlns:xlink="http://www.w3.org/1999/xlink"
	 viewBox="0 0 512.001 512.001" xml:space="preserve">
<path style="fill:#FFCE66;" d="M488.624,286.558c-11.415-24.495-20.605-49.918-27.771-75.973
	c-20.207-73.459-78.869-130.982-152.979-149.585l0,0c27.923-27.6,32.618-52,32.618-52s-84.505-7.848-84.505,45.609
	C255.987,1.151,171.482,9,171.482,9s4.696,24.401,32.618,52l0,0C129.99,79.601,71.329,137.125,51.122,210.585
	c-7.167,26.057-16.358,51.479-27.771,75.973C-3.019,343.143,8.218,503.419,255.987,503.419S514.994,343.143,488.624,286.558z"/>
<g style="opacity:0.1;">
	<path d="M204.101,60.999C129.99,79.601,71.329,137.126,51.122,210.583c-7.167,26.057-16.358,51.479-27.771,75.973
		C-3.02,343.142,8.218,503.417,255.987,503.417c8.643,0,16.968-0.214,25.044-0.594C57.597,492.342,47.988,341.169,73.438,286.556
		c11.415-24.495,20.605-49.917,27.771-75.973C121.416,137.126,129.99,79.603,204.101,60.999L204.101,60.999z"/>
</g>
<path style="fill:#ED835F;" d="M317.86,326.49l-61.873-20.692l-61.873,20.697c0,0.072-0.007,0.143-0.007,0.215
	c0,27.913,27.704,50.541,61.881,50.541s61.881-22.629,61.881-50.541C317.866,326.636,317.86,326.564,317.86,326.49z"/>
<path style="fill:#FF8C64;" d="M255.987,335.427c23.252,0,44.68-3.331,61.809-8.936l0.064-0.002
	c-0.146-27.811-27.79-50.319-61.873-50.319c-34.087,0-61.73,22.512-61.873,50.326l0.062-0.005
	C211.305,332.096,232.734,335.427,255.987,335.427z"/>
<circle cx="164.475" cy="247.407" r="22.374"/>
<circle cx="347.492" cy="247.407" r="22.374"/>
<path d="M43.195,433.795c-2.593,0-5.154-1.169-6.843-3.394C18.615,407.04,7.94,379.061,5.483,349.49
	c-2.012-24.225,1.662-48.486,10.085-66.559c10.93-23.456,20.108-48.562,27.277-74.623C62.662,136.264,117.74,79.25,188.305,56.59
	c-20.938-24.661-25.067-45.001-25.253-45.969c-0.457-2.379,0.11-4.839,1.565-6.776c1.455-1.937,3.66-3.17,6.07-3.394
	c2.149-0.199,52.945-4.617,78.86,19.002c2.442,2.226,4.589,4.615,6.439,7.165c1.85-2.55,3.997-4.941,6.439-7.165
	c25.915-23.62,76.711-19.2,78.86-19.002c2.412,0.224,4.615,1.457,6.07,3.394c1.453,1.937,2.022,4.396,1.565,6.776
	c-0.187,0.968-4.313,21.307-25.251,45.967c21.507,6.904,41.758,17.068,60.365,30.313c3.862,2.749,4.763,8.109,2.016,11.971
	c-2.749,3.862-8.109,4.765-11.971,2.014c-20.762-14.779-43.739-25.399-68.295-31.561c-3.007-0.755-5.373-3.071-6.189-6.062
	c-0.819-2.991,0.039-6.189,2.246-8.367c15.097-14.922,22.913-28.834,26.778-37.709c-14.755,0.062-40.614,2.162-54.648,14.975
	c-6.325,5.774-9.4,13.117-9.4,22.448c0,4.74-3.842,8.584-8.584,8.584s-8.584-3.842-8.584-8.584c0-9.34-3.081-16.69-9.419-22.466
	c-13.242-12.07-38.358-14.903-54.652-15.003c3.856,8.862,11.672,22.8,26.801,37.755c2.203,2.179,3.063,5.378,2.246,8.367
	c-0.817,2.991-3.183,5.307-6.19,6.062c-71.102,17.847-127.35,72.846-146.794,143.536c-7.422,26.984-16.933,52.999-28.268,77.321
	c-12.182,26.142-17.204,82.292,18.896,129.839c2.867,3.775,2.129,9.16-1.646,12.027C46.827,433.227,45.004,433.795,43.195,433.795z"
	/>
<path d="M255.985,512.001c-76.881,0-137.866-15.228-181.258-45.262c-3.897-2.698-4.87-8.045-2.172-11.943
	c2.698-3.9,8.043-4.87,11.943-2.174c40.468,28.008,98.164,42.21,171.487,42.21c131.284,0,187.97-45.708,212.404-84.053
	c29.093-45.657,23.388-97.135,12.454-120.599c-11.332-24.314-20.843-50.329-28.27-77.321c-8.014-29.134-22.827-56.674-42.842-79.641
	c-3.114-3.574-2.741-8.995,0.832-12.111c3.573-3.114,8.995-2.742,12.111,0.832c21.696,24.897,37.76,54.762,46.452,86.366
	c7.172,26.068,16.349,51.176,27.277,74.623c15.016,32.224,17.186,88.863-13.536,137.075
	C456.124,461.975,395.053,512.001,255.985,512.001z"/>
<path d="M326.439,326.296c0-0.026-0.005-0.053-0.007-0.079c-0.317-32.35-31.86-58.631-70.449-58.631
	c-38.549,0-70.062,26.226-70.446,58.53c-0.002,0.031-0.007,0.061-0.007,0.09c-0.008,0.168-0.012,0.335-0.012,0.503
	c0,32.602,31.611,59.125,70.464,59.125s70.464-26.523,70.464-59.125C326.449,326.61,326.444,326.43,326.439,326.296z
	 M255.985,284.753c26.563,0,48.713,15.445,52.664,35.527c-0.01,0.003-0.021,0.007-0.031,0.01c-1.767,0.487-3.574,0.94-5.403,1.373
	c-0.286,0.067-0.571,0.138-0.858,0.206c-1.756,0.408-3.542,0.788-5.347,1.146c-0.35,0.069-0.702,0.138-1.056,0.206
	c-1.82,0.35-3.662,0.677-5.528,0.977c-0.289,0.046-0.582,0.089-0.873,0.135c-1.945,0.303-3.91,0.587-5.899,0.835
	c-0.033,0.003-0.066,0.008-0.099,0.013c-2.008,0.25-4.043,0.465-6.093,0.659c-0.311,0.03-0.618,0.061-0.931,0.09
	c-1.963,0.178-3.946,0.327-5.944,0.452c-0.378,0.025-0.758,0.046-1.139,0.069c-2.008,0.117-4.027,0.21-6.064,0.275
	c-0.309,0.01-0.621,0.015-0.932,0.025c-2.146,0.059-4.301,0.097-6.471,0.097c-2.17,0-4.327-0.038-6.471-0.097
	c-0.311-0.008-0.621-0.015-0.932-0.025c-2.039-0.064-4.061-0.158-6.072-0.275c-0.375-0.021-0.748-0.044-1.123-0.067
	c-2.001-0.127-3.989-0.276-5.958-0.454c-0.306-0.028-0.608-0.059-0.914-0.089c-2.055-0.196-4.097-0.411-6.111-0.661
	c-0.023-0.003-0.044-0.007-0.067-0.008c-2.004-0.25-3.982-0.536-5.94-0.842c-0.281-0.044-0.566-0.086-0.847-0.13
	c-1.876-0.301-3.726-0.631-5.554-0.982c-0.34-0.066-0.681-0.132-1.019-0.199c-1.817-0.36-3.612-0.743-5.378-1.153
	c-0.275-0.064-0.546-0.132-0.82-0.196c-1.841-0.437-3.662-0.893-5.442-1.384c-0.005-0.002-0.01-0.003-0.015-0.005
	C207.272,300.198,229.421,284.753,255.985,284.753z M255.985,368.669c-24.251,0-44.77-12.816-51.204-30.299
	c0.182,0.043,0.373,0.079,0.556,0.122c1.712,0.401,3.441,0.784,5.194,1.143c0.25,0.051,0.503,0.097,0.753,0.146
	c1.588,0.317,3.195,0.617,4.814,0.898c0.396,0.069,0.789,0.14,1.187,0.207c1.792,0.302,3.601,0.584,5.429,0.842
	c0.362,0.051,0.725,0.097,1.088,0.146c1.631,0.222,3.275,0.427,4.931,0.617c0.347,0.039,0.692,0.082,1.041,0.12
	c1.869,0.204,3.755,0.383,5.654,0.543c0.427,0.036,0.857,0.067,1.284,0.102c1.751,0.138,3.512,0.258,5.284,0.358
	c0.238,0.013,0.474,0.031,0.71,0.043c1.943,0.104,3.902,0.179,5.866,0.237c0.464,0.013,0.926,0.025,1.391,0.036
	c1.999,0.048,4.004,0.081,6.023,0.081c2.019,0,4.025-0.033,6.026-0.081c0.459-0.012,0.916-0.021,1.373-0.035
	c1.965-0.058,3.92-0.133,5.863-0.237c0.25-0.013,0.498-0.031,0.75-0.046c1.772-0.1,3.532-0.22,5.283-0.358
	c0.408-0.033,0.817-0.062,1.225-0.095c1.904-0.159,3.796-0.34,5.672-0.544c0.35-0.038,0.697-0.081,1.047-0.12
	c1.687-0.192,3.362-0.401,5.023-0.628c0.314-0.043,0.631-0.082,0.944-0.127c1.843-0.26,3.668-0.546,5.477-0.85
	c0.388-0.066,0.771-0.133,1.157-0.201c1.707-0.298,3.4-0.61,5.072-0.947c0.15-0.03,0.303-0.058,0.452-0.089
	c1.782-0.363,3.537-0.753,5.276-1.159c0.186-0.044,0.378-0.081,0.564-0.123C300.756,355.853,280.235,368.669,255.985,368.669z"/>
</svg>